<svg width="673" height="213" viewBox="0 0 673 213" fill="none" xmlns="http://www.w3.org/2000/svg">
<path fill-rule="evenodd" clip-rule="evenodd" d="M609.756 0.531074C599.515 2.78407 595.087 9.96008 593.2 27.3591C591.505 42.9781 591.513 43.2611 593.637 43.6831C596.102 44.1721 600.256 41.9131 600.256 40.0831C600.256 39.2021 599.675 38.8801 598.756 39.2521C597.931 39.5861 596.509 40.1601 595.595 40.5281C594.215 41.0831 594.065 40.7871 594.707 38.7781C595.132 37.4471 595.838 32.2831 596.275 27.3011C597.917 8.57406 604.64 1.62607 619.493 3.30607C625.826 4.02307 627.244 2.74807 622.107 0.957069C618.985 -0.130931 613.609 -0.316926 609.756 0.531074ZM233.454 2.53208C223.539 7.41808 226.188 22.8591 236.941 22.8591H240.78L240.641 30.1091C240.565 34.0971 240.055 38.4841 239.507 39.8591C237.575 44.7081 241.066 49.1981 246.364 48.6771C250.5 48.2711 251.661 45.7201 247.568 46.0321C243.784 46.3201 242.256 45.2631 242.256 42.3571C242.256 39.5881 245.587 36.8711 248.157 37.5431C249.293 37.8411 250.545 37.0671 251.646 35.3871C253.296 32.8691 253.274 32.6231 251.073 29.0631C249.383 26.3281 248.697 25.8091 248.453 27.0781C248.27 28.0231 248.543 29.5491 249.058 30.4701C250.362 32.8011 249.349 36.1091 247.543 35.4161C246.745 35.1091 245.462 34.8591 244.692 34.8591C243.66 34.8591 243.313 33.4811 243.371 29.6091C243.435 25.4011 244.027 23.6261 246.353 20.6681C247.95 18.6371 249.256 16.5161 249.256 15.9531C249.256 15.3901 250.156 14.4481 251.256 13.8591C252.356 13.2701 253.256 13.0811 253.256 13.4391C253.256 13.7961 254.379 13.3531 255.752 12.4541C257.315 11.4301 259.184 11.0541 260.753 11.4471C262.277 11.8301 263.257 11.6501 263.257 10.9861C263.257 9.28609 258.377 8.48306 255.635 9.73206C252.068 11.3571 250.256 11.1221 250.256 9.03309C250.256 5.69809 243.182 0.818088 238.441 0.882088C237.514 0.894088 235.27 1.63708 233.454 2.53208ZM233.115 6.69407C228.064 11.2071 229.023 17.5671 235.064 19.6181C239.369 21.0801 243.666 19.3491 246.55 14.9911C248.898 11.4431 248.991 10.9251 247.627 8.97807C245.849 6.44007 241.158 3.85908 238.321 3.85908C237.203 3.85908 234.86 5.13507 233.115 6.69407ZM633.006 10.9391C630.342 12.4911 630.861 14.1751 633.779 13.4431C635.8 12.9351 636.47 13.2621 637.148 15.0841C638.171 17.8381 637.537 19.8591 635.649 19.8591C633.713 19.8591 633.901 21.7851 635.912 22.5571C638.385 23.5061 641.547 19.1601 640.74 15.9221C640.007 12.9851 637.462 9.84508 635.851 9.88908C635.249 9.90608 633.968 10.3781 633.006 10.9391ZM263.257 14.3591C262.572 15.1841 260.941 15.8591 259.634 15.8591C258.326 15.8591 257.257 16.3091 257.257 16.8591C257.257 18.3821 261.536 18.0521 263.979 16.3411C265.171 15.5061 266.678 14.9431 267.327 15.0911C267.976 15.2381 268.713 14.7971 268.965 14.1091C269.627 12.3061 264.785 12.5181 263.257 14.3591ZM265.443 24.5841C265.728 26.0671 267.747 27.5591 271.757 29.2491C272.307 29.4811 271.445 30.7661 269.841 32.1031C267.807 33.8001 267.29 34.7621 268.134 35.2841C269.494 36.1241 274.085 33.4701 274.888 31.3791C275.767 29.0881 273.439 26.0581 270.264 25.3611C268.61 24.9971 267.257 24.2861 267.257 23.7801C267.257 23.2731 266.774 22.8591 266.184 22.8591C265.593 22.8591 265.26 23.6351 265.443 24.5841ZM603.288 26.0501C603.27 27.5301 603.668 28.9961 604.172 29.3071C605.688 30.2441 610.256 28.0231 610.256 26.3491C610.256 25.0781 609.87 24.9951 608.174 25.9031C606.483 26.8081 605.832 26.6741 604.706 25.1881C603.414 23.4831 603.317 23.5421 603.288 26.0501ZM640.256 27.1631C640.256 29.5251 645.596 38.8341 646.984 38.8911C647.409 38.9081 648.545 39.5221 649.509 40.2541C651.106 41.4661 650.389 42.4731 641.468 51.5451C632.976 60.1811 631.523 62.1601 630.536 66.4321C629.799 69.6201 629.74 71.7091 630.368 72.3511C631.669 73.6791 632.88 71.6091 633.662 66.7191C634.169 63.5481 635.996 61.1081 643.85 53.1071C655.844 40.8901 656.146 40.3711 652.392 38.4291C648.88 36.6131 645.067 32.2301 643.311 27.9921C641.786 24.3101 640.256 23.8951 640.256 27.1631ZM255.256 28.8591C255.256 29.4091 255.707 29.8591 256.257 29.8591C256.807 29.8591 257.257 29.4091 257.257 28.8591C257.257 28.3091 256.807 27.8591 256.257 27.8591C255.707 27.8591 255.256 28.3091 255.256 28.8591ZM280.618 32.9751C283.271 42.4821 282.266 47.9981 277.194 51.7471C274.38 53.8281 273.207 56.8591 275.215 56.8591C277.616 56.8591 284.107 49.1781 284.792 45.5271C285.639 41.0101 283.438 31.7441 281.354 31.0551C280.304 30.7071 280.119 31.1891 280.618 32.9751ZM622.488 34.8441C621.241 36.4251 620.625 37.9691 621.12 38.2751C622.354 39.0381 627.256 35.0521 627.256 33.2861C627.256 30.9851 624.935 31.7431 622.488 34.8441ZM261.486 41.7051C260.837 43.3961 263.819 45.8591 266.516 45.8591C267.937 45.8591 268.238 45.3741 267.757 43.8591C267.393 42.7121 267.577 41.8591 268.19 41.8591C268.777 41.8591 269.257 41.4541 269.257 40.9581C269.257 39.4401 262.091 40.1281 261.486 41.7051ZM246.256 42.7931C246.256 43.3791 246.921 43.8591 247.733 43.8591C249.691 43.8591 252.63 48.4421 251.897 50.3511C251.22 52.1171 248.141 52.3441 246.543 50.7461C244.541 48.7441 242.931 50.8421 244.846 52.9581C247.073 55.4191 250.733 55.3821 253.241 52.8741C255.22 50.8951 255.227 50.8961 255.824 53.6241C256.154 55.1281 256.597 56.9221 256.809 57.6091C257.069 58.4531 255.986 58.8611 253.475 58.8661C246.721 58.8781 241.101 64.4051 237.408 74.6681C234.313 83.2661 228.445 102.868 227.696 107.109C225.606 118.939 233.844 126.742 250.646 128.849C260.731 130.113 260.257 130.135 260.257 128.404C260.257 126.921 258.63 126.505 248.271 125.343C238.224 124.216 230.256 118.136 230.256 111.597C230.256 104.971 240.929 72.2881 244.712 67.3281C249.66 60.8411 250.771 60.5311 260.746 62.8571C265.569 63.9811 269.848 65.1061 270.253 65.3561C270.658 65.6071 270.79 66.8531 270.546 68.1251C270.167 70.1101 269.616 70.3831 266.681 70.0401C262.322 69.5311 262.054 71.6691 266.368 72.5311C268.898 73.0371 269.176 73.3251 267.848 74.0681C266.95 74.5711 266.438 75.3421 266.71 75.7821C267.098 76.4101 278.495 73.8271 291.007 70.2771C294.284 69.3471 289.844 61.7961 284.078 58.4931C278.579 55.3421 278.312 57.2751 283.602 61.9321C286.162 64.1851 288.257 66.3971 288.257 66.8471C288.257 67.5121 275.811 71.8591 273.906 71.8591C273.609 71.8591 273.228 69.7321 273.061 67.1321L272.757 62.4051L268.257 61.6591C259.641 60.2311 259.564 60.1831 258.986 55.8761C258.252 50.4011 252.487 42.4591 248.946 42.0431C247.466 41.8691 246.256 42.2061 246.256 42.7931ZM606.256 47.7551C606.256 50.4851 612.579 55.6411 616.926 56.4571C620.279 57.0861 621.662 56.8141 627.492 54.3801C628.789 53.8391 629.478 54.3141 630.217 56.2571C630.761 57.6881 631.668 58.8591 632.231 58.8591C633.651 58.8591 633.52 54.5231 632.056 53.0591C631.123 52.1261 631.123 51.5921 632.056 50.6591C632.716 49.9991 633.256 48.8741 633.256 48.1591C633.256 46.3351 630.595 46.5331 629.875 48.4101C629.547 49.2631 627.203 50.8791 624.665 52.0021C618.502 54.7291 614.178 53.9081 610.514 49.3151C607.4 45.4131 606.256 44.9941 606.256 47.7551ZM657.706 48.2661C656.029 48.9961 653.459 51.0181 651.995 52.7581C649.294 55.9671 646.9 62.4741 647.853 64.0151C648.942 65.7771 649.981 64.7161 651.19 60.6091C652.743 55.3321 656.562 51.1651 660.647 50.2901C664.872 49.3851 665.717 48.7661 664.113 47.7491C662.312 46.6081 661.329 46.6881 657.706 48.2661ZM526.587 67.6381C524.843 69.1351 522.403 71.0681 521.163 71.9341C519.522 73.0811 519.111 74.0341 519.653 75.4341C520.324 77.1651 520.518 77.1981 521.577 75.7631C522.226 74.8851 524.164 73.4391 525.885 72.5501C527.606 71.6601 529.296 70.1961 529.642 69.2961C530.138 68.0041 531.165 67.7761 534.513 68.2131C543.859 69.4321 546.788 70.2041 547.915 71.7451C549.539 73.9661 550.674 72.5091 549.308 69.9561C548.698 68.8161 546.974 67.6371 545.477 67.3361C543.981 67.0361 541.374 66.3551 539.685 65.8241C534.263 64.1201 529.997 64.7111 526.587 67.6381ZM187.256 67.8031C186.431 68.3671 184.597 68.8351 183.18 68.8441C179.888 68.8631 175.753 73.1051 176.677 75.5151C177.278 77.0811 177.591 76.9881 179.554 74.6571C181.743 72.0581 186.013 70.6761 191.756 70.7071C197.759 70.7411 204.797 71.4871 206.506 72.2701C209.161 73.4881 208.659 71.1691 205.872 69.3431C204.561 68.4841 201.973 67.8271 200.122 67.8841C198.271 67.9401 194.956 67.7141 192.756 67.3821C190.556 67.0491 188.081 67.2381 187.256 67.8031ZM437.328 69.8861C434.827 71.2811 432.209 71.7481 427.646 71.6131C420.824 71.4111 418.42 72.7101 415.629 78.1071C413.575 82.0791 416.011 81.7841 419.41 77.6491C421.884 74.6391 422.44 74.4371 427.668 74.6561C433.84 74.9141 441.257 72.0121 441.257 69.3391C441.257 67.5701 441.554 67.5281 437.328 69.8861ZM346.257 70.6031C340.861 71.3911 334.433 74.0421 332.229 76.3881C328.748 80.0931 330.27 80.2231 336.931 76.7871C347.36 71.4091 356.946 72.7601 364.943 80.7361C371.656 87.4301 373.813 94.8721 374.622 114.119C374.755 117.287 375.29 119.892 375.81 119.907C378.745 119.991 377.636 98.6191 374.233 89.5261C369.737 77.5081 357.17 69.0091 346.257 70.6031ZM528.779 71.8231C528.451 72.3521 529.099 73.7021 530.22 74.8231C532.622 77.2251 535.932 77.6391 542.047 76.3021C545.902 75.4581 543.429 73.8591 538.268 73.8591C535.273 73.8591 532.821 73.2821 531.899 72.3591C530.146 70.6061 529.59 70.5101 528.779 71.8231ZM256.78 72.8221C256.453 73.3511 257.295 75.9761 258.652 78.6551C260.662 82.6211 260.967 84.2061 260.294 87.1901C259.126 92.3681 261.33 100.167 267.005 110.946C267.175 111.269 264.713 110.746 261.535 109.783C246.539 105.244 244.859 104.856 243.99 105.725C242.671 107.044 244.589 107.966 254.728 110.885L263.701 113.469L264.901 117.612C265.56 119.891 266.387 124.142 266.738 127.058C267.364 132.248 267.31 132.397 264.16 134.152C261.841 135.445 261.247 136.25 262.031 137.034C262.816 137.819 264.047 137.584 266.439 136.192C268.915 134.752 269.836 133.458 270.068 131.094C270.341 128.312 270.827 127.846 274.068 127.263C276.097 126.897 278.207 126.284 278.757 125.901C279.307 125.517 282.007 124.378 284.757 123.37C293.953 119.997 294.257 119.608 294.257 111.213C294.257 105.253 293.934 103.672 292.612 103.165C290.599 102.393 288.257 105.3 288.257 108.572C288.257 110.258 286.962 111.724 283.578 113.87C281.005 115.501 278.688 116.624 278.428 116.364C278.168 116.105 277.912 114.422 277.857 112.626C277.722 108.204 275.101 108.309 272.035 112.859C269.426 116.73 267.946 117.196 267.392 114.32C267.084 112.722 267.266 112.622 268.552 113.689C270.901 115.639 271.265 113.741 269.31 109.723C264.753 100.353 262.064 91.0711 262.645 86.7121C263.109 83.2351 262.737 81.5041 260.799 78.1091C259.464 75.7721 258.529 73.8591 258.72 73.8591C258.912 73.8591 260.659 76.0741 262.604 78.7811C265.392 82.6611 266.583 83.5861 268.233 83.1551C270.908 82.4551 276.502 88.1731 281.793 97.0151C283.882 100.504 285.711 103.517 285.857 103.709C286.004 103.902 286.6 103.765 287.182 103.405C288.506 102.587 285.418 96.3351 280.254 89.3821C275.147 82.5051 272.736 80.5421 269.509 80.6291C267.334 80.6871 266.127 79.7741 263.757 76.2831C260.914 72.0951 258.094 70.6961 256.78 72.8221ZM551.838 74.3751C549.778 77.5181 550.848 78.8511 554.821 78.0911C557.184 77.6401 558.303 75.8591 556.224 75.8591C555.656 75.8591 554.84 74.9091 554.411 73.7491C553.651 71.6961 553.582 71.7131 551.838 74.3751ZM211.256 73.6711C211.256 74.1181 212.606 75.4811 214.256 76.7011C216.546 78.3941 217.256 79.7081 217.256 82.2541C217.256 84.1121 218.172 86.7541 219.325 88.2191C222.09 91.7341 221.158 95.1241 217.669 94.2481C214.63 93.4851 209.515 95.5061 208.183 97.9961C206.934 100.33 208.96 100.55 211.815 98.3911C214.643 96.2521 217.256 96.4771 217.256 98.8591C217.256 101.608 218.714 101.364 221.205 98.1971C224.481 94.0321 224.814 91.1051 222.385 87.8191C221.18 86.1901 220.256 83.4411 220.256 81.4881C220.256 78.8621 219.521 77.4181 217.179 75.4481C214.176 72.9211 211.256 72.0451 211.256 73.6711ZM637.315 86.3181C631.843 97.3921 630.825 98.8591 628.61 98.8591C627.198 98.8591 624.882 100.08 623.309 101.652C621.773 103.189 620.073 104.298 619.533 104.118C618.992 103.938 615.447 105.347 611.653 107.249C607.86 109.151 603.028 111.411 600.916 112.27C598.804 113.129 596.86 114.656 596.597 115.662C596.297 116.809 594.098 118.178 590.699 119.334C585.356 121.15 585.181 121.146 578.24 119.06C569.075 116.304 565.79 117.476 569.911 122.03C571.459 123.741 571.443 123.86 569.661 123.873C568.613 123.88 566.724 124.163 565.463 124.5C563.871 124.927 563.26 124.717 563.463 123.812C563.649 122.985 562.115 122.182 559.256 121.61C553.531 120.465 552.256 118.745 552.256 112.168C552.256 106.058 550.645 105.066 549.723 110.609C548.745 116.499 548.702 116.548 542.787 118.761C537.058 120.905 533.226 121.449 533.294 120.109C533.315 119.696 535.115 118.126 537.294 116.619C539.619 115.01 541.256 113.072 541.256 111.928C541.256 108.87 539.355 108.469 538.279 111.299C537.744 112.707 536.642 113.859 535.83 113.859C535.019 113.859 533.94 114.601 533.433 115.507C532.831 116.583 530.37 117.448 526.347 117.998C521.321 118.686 519.499 118.519 516.47 117.097C512.804 115.375 512.744 115.25 511.723 107.356C510.782 100.073 510.575 99.5651 509.408 101.665C507.662 104.807 508.892 114.125 511.488 117.425C512.586 118.822 513.715 119.734 513.997 119.452C514.279 119.17 515.791 119.601 517.356 120.411C519.404 121.47 521.754 121.7 525.729 121.233L531.256 120.584V124.221C531.256 128.228 532.597 128.96 534.256 125.859C534.845 124.759 536.098 123.845 537.041 123.828C537.984 123.811 541.213 122.799 544.216 121.578L549.675 119.359L551.92 121.609C553.155 122.847 555.311 123.859 556.711 123.859C561.707 123.859 559.147 125.613 553.163 126.29C544.504 127.27 542.747 128.175 540.992 132.561C539.556 136.15 539.041 136.505 533.602 137.654C528.418 138.75 527.558 139.288 526.006 142.415C525.044 144.355 524.256 146.554 524.256 147.304C524.256 148.226 522.638 148.778 519.244 149.012C515.076 149.301 514.349 149.107 514.922 147.859C516.678 144.035 516.433 136.502 514.403 131.97C513.268 129.434 510.928 123.871 509.204 119.609C506.276 112.369 504.257 109.831 504.257 113.392C504.257 114.235 506.282 120.247 508.757 126.752C515.234 143.775 515.007 145.283 505.067 151.355C495.906 156.952 483.257 166.886 483.257 168.484C483.257 170.659 484.154 170.215 492.111 164.109C496.232 160.946 502.339 156.67 505.681 154.606L511.757 150.853L512.443 155.498C513.701 163.996 515.309 166.256 521.506 168.237C522.675 168.611 523.256 169.823 523.256 171.889C523.256 174.965 523.233 174.978 518.968 174.338C515.478 173.815 514.221 174.083 512.218 175.777L509.757 177.859L512.177 179.908C513.927 181.389 515.708 181.874 518.6 181.658C524.441 181.221 524.644 178.859 518.839 178.859C516.233 178.859 514.256 178.395 514.256 177.782C514.256 177.19 515.718 176.786 517.506 176.884C519.294 176.982 522.249 177.016 524.073 176.96C526.967 176.872 527.306 176.592 526.727 174.768C526.176 173.033 526.932 173.325 531.16 176.481C535.03 179.37 536.256 180.918 536.256 182.914C536.256 184.359 536.926 187.75 537.745 190.45C538.564 193.15 539.239 195.472 539.245 195.609C539.251 195.746 533.181 195.859 525.756 195.859C513.179 195.859 510.237 195.225 513.488 193.215C514.166 192.796 515.404 192.348 516.238 192.219C524.561 190.932 526.285 190.445 525.961 189.472C525.525 188.165 513.049 187.576 512.276 188.827C511.99 189.289 502.194 189.823 490.507 190.013C478.819 190.203 469.257 190.638 469.257 190.98C469.257 191.321 466.57 191.905 463.286 192.276C460.003 192.648 457.053 193.381 456.728 193.905C455.899 195.247 466.904 195.118 469.449 193.756C471.032 192.908 471.707 192.966 472.353 194.006C473.025 195.085 471.633 195.46 465.475 195.859C461.23 196.134 457.171 196.19 456.456 195.982C455.429 195.685 448.257 183.054 448.257 181.542C448.257 181.341 450.014 180.649 452.164 180.005C454.313 179.361 457.434 177.562 459.098 176.008C460.762 174.453 463.841 172.535 465.94 171.745C470.847 169.899 473.259 165.312 473.24 157.859C473.219 149.607 473.228 149.612 461.767 151.332C456.341 152.147 451.519 153.197 451.051 153.665C449.718 154.998 451.319 165.431 453.374 168.812C454.394 170.488 455.908 171.859 456.741 171.859C458.877 171.859 458.571 173.09 455.975 174.942C452.543 177.39 447.03 179.032 445.931 177.933C445.043 177.045 405.468 177.474 402.507 178.404C401.82 178.62 401.257 179.26 401.257 179.828C401.257 180.486 406.248 180.859 415.072 180.859H428.887L430.625 184.505C431.954 187.292 432.639 187.876 433.535 186.98C434.43 186.085 434.402 185.32 433.413 183.737C432.701 182.597 432.314 181.468 432.553 181.228C432.793 180.989 435.58 180.695 438.747 180.576L444.504 180.359L448.299 188.574L452.095 196.79L403.426 196.888C376.658 196.942 352.957 197.138 350.757 197.324C348.557 197.51 306.257 197.975 256.757 198.357C207.257 198.739 161.131 199.197 154.256 199.375L141.756 199.698L141.617 193.779L141.478 187.859L147.617 187.744C150.993 187.68 154.206 187.524 154.756 187.396C155.306 187.268 159.918 187.095 165.006 187.011C172.494 186.888 174.256 186.573 174.256 185.359C174.256 184.503 173.357 183.859 172.162 183.859C170.959 183.859 169.861 183.065 169.58 181.99C169.171 180.427 167.752 180.017 160.924 179.488C151.794 178.781 116.609 179.523 115.102 180.454C114.569 180.784 113.72 182.138 113.216 183.463C112.712 184.789 111.953 185.817 111.528 185.748C109.203 185.369 106.256 185.99 106.256 186.859C106.256 187.485 112.393 187.859 122.667 187.859H139.078L139.417 193.861L139.756 199.863L99.7565 199.947C77.7565 199.993 58.4065 200.126 56.7565 200.242C55.1065 200.359 42.5965 200.545 28.9565 200.656L4.15649 200.859L4.45649 206.478L4.75649 212.098L25.2565 211.879C36.5315 211.759 50.7065 211.528 56.7565 211.365C62.8065 211.203 106.231 210.792 153.256 210.453C200.281 210.114 249.557 209.621 262.757 209.358C275.957 209.095 323.882 208.614 369.257 208.288C414.632 207.963 456.932 207.549 463.257 207.369C469.582 207.188 518.181 206.715 571.256 206.317C624.331 205.918 668.769 205.214 670.006 204.751C672.333 203.88 672.898 200.858 671.624 196.103L671.02 193.847L653.138 194.427C636.279 194.975 635.257 194.904 635.274 193.184C635.284 192.18 635.951 187.084 636.756 181.859C638.517 170.432 638.729 161.986 637.217 163.498C636.646 164.069 635.191 171.359 633.985 179.698L631.792 194.859L592.774 194.921C571.314 194.955 550.831 195.138 547.256 195.327C540.821 195.667 540.755 195.644 540.665 193.014C540.615 191.554 540.216 187.781 539.78 184.631L538.986 178.902L558.788 178.631C573.544 178.428 578.697 178.04 579.007 177.109C579.331 176.134 574.553 175.859 557.297 175.859H535.172L530.753 172.609C528.323 170.821 526.316 169.131 526.295 168.853C526.274 168.575 527.616 167.745 529.279 167.009C533.018 165.354 535.077 161.539 535.379 155.704C535.68 149.88 534.922 148.859 530.291 148.859C526.866 148.859 526.504 148.626 526.996 146.745C527.441 145.044 527.709 144.918 528.37 146.099C529.039 147.294 530.191 147.394 534.573 146.639C539.822 145.735 540.035 145.792 543.161 148.918C546.312 152.068 546.483 152.112 553.061 151.446C556.743 151.074 562.596 150.114 566.068 149.314C573.81 147.529 577.255 147.466 577.26 149.109C577.264 150.224 592.872 183.793 596.14 189.716C597 191.274 597.778 191.737 598.432 191.083C599.087 190.428 598.075 187.252 595.452 181.725C593.269 177.124 588.917 167.972 585.781 161.388C582.304 154.085 580.519 149.271 581.205 149.043C583.289 148.348 588.144 143.786 588.716 141.986C589.027 141.004 591.238 139.224 593.629 138.03C598.546 135.574 600.256 135.322 600.256 137.055C600.256 139.013 605.416 145.859 606.892 145.859C608.898 145.859 608.569 144.676 605.704 141.587C604.301 140.073 603.367 138.489 603.628 138.066C604.055 137.376 602.571 127.75 600.707 119.11C600.053 116.079 600.247 115.761 603.599 114.36C605.575 113.534 607.395 112.859 607.644 112.859C608.798 112.859 609.475 120.394 609.697 135.7C609.942 152.631 611.468 162.619 613.954 163.574C614.673 163.849 617.172 163.292 619.508 162.335C622.417 161.144 626.13 160.643 631.288 160.747C636.293 160.847 639.449 160.439 640.691 159.53C643.084 157.78 641.897 155.446 639.317 156.826C638.317 157.361 634.182 157.758 630.128 157.707C625.365 157.648 621.451 158.185 619.069 159.224C615.625 160.727 615.351 160.719 614.908 159.096C613.054 152.314 612.208 142.57 612.542 131.859C612.798 123.655 612.5 117.879 611.675 115.051C610.44 110.823 610.467 110.723 613.086 109.693C614.555 109.116 616.537 108.242 617.492 107.751C619.805 106.563 622.256 106.618 622.256 107.859C622.256 108.409 622.706 108.859 623.256 108.859C623.806 108.859 624.256 107.539 624.256 105.926C624.256 100.427 630.718 100.984 633.695 106.74C634.497 108.292 636.292 110.308 637.684 111.22C641.268 113.568 643.184 117.835 643.91 125.084C644.526 131.238 646.603 136.643 650.45 142.102C651.513 143.611 652.097 145.307 651.748 145.871C651.4 146.435 648.784 148.103 645.935 149.577C641.877 151.677 639.403 152.244 634.502 152.201C629.407 152.155 628.453 152.392 629.353 153.476C632.255 156.972 642.067 155.897 649.377 151.282C651.489 149.95 653.874 148.859 654.677 148.859C657.667 148.859 657.205 146.758 652.734 140.035C648.985 134.396 647.967 131.87 647.181 126.245C645.817 116.488 644.703 113.681 640.65 109.787C638.688 107.902 636.234 105.182 635.197 103.744L633.312 101.129L639.313 88.9081C646.045 75.1961 646.198 74.7731 644.634 74.1931C644.012 73.9631 640.751 79.3651 637.315 86.3181ZM526.851 78.7491C524.928 80.8791 522.612 81.7101 523.756 79.8591C524.096 79.3091 523.897 78.8591 523.315 78.8591C522.733 78.8591 522.256 79.5341 522.256 80.3591C522.256 81.1841 521.456 81.8591 520.479 81.8591C517.416 81.8591 514.384 84.6311 514.975 86.8921C515.519 88.9731 519.598 91.5411 522.173 91.4241C524.835 91.3021 524.279 89.3061 521.265 88.1691C517.293 86.6691 517.455 85.2321 521.685 84.4381C526.061 83.6171 529.584 80.7791 529.118 78.4491C528.782 76.7701 528.617 76.7921 526.851 78.7491ZM350.738 80.9411C350.206 83.3621 350.548 84.5411 352.333 86.4411C353.582 87.7711 355.202 88.8591 355.931 88.8591C357.737 88.8591 357.771 88.6841 353.18 103.359C347.239 122.352 347.369 121.094 351.372 120.73C353.95 120.496 354.665 120.772 354.37 121.891C353.177 126.42 353.277 127.664 355.013 129.807C356.918 132.16 356.914 132.186 353.591 137.704C351.757 140.75 350.257 144.43 350.257 145.884C350.257 147.337 350.015 148.766 349.721 149.061C349.427 149.355 345.714 148.591 341.471 147.364L333.757 145.133L333.729 140.519C333.714 137.982 333.214 135.416 332.616 134.818C331.408 133.61 321.769 137.05 307.767 143.685L299.777 147.472L285.797 142.185C278.108 139.278 271.497 137.227 271.108 137.629C270.718 138.03 270.076 151.071 269.681 166.609C269.137 188.026 269.249 194.859 270.142 194.859C270.79 194.859 271.493 194.297 271.707 193.609C271.92 192.922 272.364 180.913 272.694 166.923C273.024 152.934 273.464 141.318 273.671 141.111C273.878 140.905 279.537 142.869 286.246 145.477L298.444 150.219L298.1 172.539C297.832 189.913 298.034 194.86 299.007 194.859C299.695 194.859 300.339 194.746 300.44 194.609C300.54 194.472 300.878 184.318 301.19 172.047L301.757 149.734L313.964 144.326C320.678 141.352 327.203 138.659 328.464 138.342L330.757 137.765L330.257 157.562L329.757 177.359L322.401 177.542C313.636 177.761 312.257 178.191 312.257 180.705C312.257 183.75 314.773 185.05 321.746 185.61C327.321 186.058 328.257 185.898 328.257 184.496C328.257 183.22 327.211 182.844 323.507 182.789C315.675 182.673 313.684 181.014 321.257 180.915C329.269 180.81 332.561 179.285 333.306 175.332C333.795 172.736 333.959 172.613 334.589 174.359C334.986 175.459 335.939 177.185 336.707 178.195C338.039 179.947 338.851 179.773 354.43 174.392C370.33 168.901 373.273 167.543 372.01 166.28C371.28 165.55 365.687 167.201 350.517 172.622L339.277 176.639L336.267 171.377C333.524 166.583 333.257 165.305 333.257 156.987C333.257 151.967 333.594 147.866 334.007 147.874C334.42 147.882 338.357 149.007 342.757 150.374C347.157 151.741 351.23 152.859 351.81 152.859C352.389 152.859 352.902 151.134 352.948 149.026C353.08 143.028 357.827 134.859 361.18 134.859C363.964 134.859 369.879 139.573 372.991 144.27C374.635 146.753 377.381 152.799 379.095 157.706L382.211 166.629L377.234 174.994C371.889 183.978 371.56 184.859 373.548 184.859C374.259 184.859 376.6 181.821 378.75 178.109C380.9 174.397 383.4 170.234 384.306 168.859C385.213 167.484 388.531 161.999 391.68 156.67C394.829 151.341 398.026 146.466 398.785 145.836C399.544 145.206 403.877 143.418 408.414 141.863C414.592 139.746 417.333 138.217 419.328 135.772C421.919 132.597 422.086 132.545 425.375 133.872C431.562 136.368 435.941 139.659 438.223 143.526C440.214 146.9 440.337 147.746 439.276 150.68C437.854 154.614 438.804 156.198 440.882 153.357C446.011 146.345 440.292 136.967 427.708 131.751L422.611 129.638L423.057 124.248C423.675 116.798 421.901 117.409 419.949 125.318C417.543 135.071 416.42 136.261 406.772 139.269C397.273 142.23 395.38 143.968 388.689 155.864C386.526 159.709 384.507 162.855 384.203 162.857C383.899 162.858 382.601 159.597 381.319 155.609C378.88 148.025 374.206 139.899 370.129 136.158C368.81 134.947 365.606 133.016 363.008 131.867C360.409 130.718 357.888 129.008 357.405 128.068C356.614 126.526 356.854 120.929 357.749 120.033C357.948 119.834 361.554 119.707 365.762 119.75C371.42 119.808 373.303 119.507 372.993 118.594C372.696 117.723 369.582 117.359 362.414 117.359C356.827 117.359 352.257 117.051 352.257 116.674C352.257 116.297 352.745 114.722 353.341 113.174C353.937 111.626 355.885 105.297 357.671 99.1101L360.917 87.8611L357.336 86.1101C355.367 85.1471 353.701 83.7971 353.632 83.1091C353.563 82.4221 353.451 80.9591 353.382 79.8591C353.19 76.7921 351.497 77.4841 350.738 80.9411ZM190.256 79.7171C190.256 81.2121 193.629 82.8591 196.69 82.8591C198.769 82.8591 199.256 83.3401 199.256 85.3901C199.256 86.7831 199.881 88.1611 200.644 88.4541C201.407 88.7471 202.296 90.3081 202.619 91.9231C202.964 93.6501 203.842 94.8591 204.75 94.8591C206.784 94.8591 205.759 90.2041 203.073 87.2391C201.705 85.7301 201.342 84.3631 201.813 82.4891C202.453 79.9391 202.335 79.8591 197.946 79.8591C195.457 79.8591 192.708 79.5861 191.838 79.2521C190.968 78.9181 190.256 79.1271 190.256 79.7171ZM543.813 81.0821C541.853 83.8791 541.867 84.3271 543.971 86.4311C544.914 87.3741 545.701 89.5061 545.721 91.1681C545.768 95.2101 547.903 95.7441 548.742 91.9241C549.231 89.6971 548.872 88.1291 547.403 86.0661C546.037 84.1471 545.689 82.7881 546.311 81.8041C548.507 78.3341 546.204 77.6681 543.813 81.0821ZM178.438 82.3591C177.155 85.1761 176.425 85.3491 172.803 83.6981C169.771 82.3171 165.256 83.8961 165.256 86.3381C165.256 88.2961 163.643 88.3111 162.894 86.3591C162.024 84.0911 159.579 84.5411 154.762 87.8551C148.733 92.0031 146.256 95.4491 146.256 99.6901V103.251L142.958 100.055C139.112 96.3271 136.719 95.9801 135.921 99.0331C135.169 101.907 136.275 103.577 137.491 101.404C138.368 99.8361 138.659 99.8881 140.944 102.025C142.317 103.309 143.915 105.242 144.497 106.322C145.531 108.242 145.495 108.246 142.818 106.492C139.742 104.476 138.29 104.99 140.281 107.389C142.562 110.137 145.078 111.024 147.269 109.852C148.865 108.998 149.072 108.384 148.269 106.883C146.649 103.856 147.073 103.57 149.891 105.786C151.604 107.134 153.966 107.851 156.641 107.837C160.828 107.815 168.453 104.967 169.692 102.963C170.067 102.356 171.735 101.859 173.398 101.859C177.511 101.859 176.617 99.5121 172.256 98.8591C167.688 98.1751 167.605 96.8121 171.951 93.8591C173.975 92.4841 176.38 90.5581 177.296 89.5791C179.413 87.3151 180.732 88.7541 181.578 94.2521C182.728 101.731 189.449 105.214 195.097 101.258C200.064 97.7791 199.569 91.2931 194.039 87.4201C191.567 85.6881 186.558 85.3831 184.279 86.8241C182.092 88.2071 179.429 85.4031 180.016 82.3341C180.624 79.1551 179.893 79.1661 178.438 82.3591ZM336.893 82.8971C335.905 84.5681 333.333 87.1031 331.177 88.5301C326.61 91.5521 326.286 93.1771 329.788 95.4711C332.746 97.4091 334.186 96.5781 332.514 93.9001C331.511 92.2941 331.974 91.4051 335.802 87.5771C338.252 85.1271 340.257 82.3881 340.257 81.4911C340.257 78.9711 338.869 79.5511 336.893 82.8971ZM467.009 82.1091C466.197 83.3471 464.136 85.7241 462.427 87.3921C460.719 89.0601 458.612 92.4331 457.746 94.8881C456.88 97.3431 454.79 100.777 453.102 102.519C451.414 104.261 450.333 106.175 450.703 106.773C451.129 107.462 450.279 107.859 448.375 107.859C446.725 107.859 445.097 107.409 444.757 106.859C444.417 106.309 444.772 105.859 445.547 105.859C447.755 105.859 455.257 100.02 455.257 98.3011C455.257 97.4511 453.911 96.2861 452.266 95.7121C449.455 94.7321 449.365 94.5421 450.766 92.5421C451.586 91.3721 452.257 89.1641 452.257 87.6361C452.257 85.0191 452.003 84.8591 447.839 84.8591C445.409 84.8591 442.709 84.5861 441.839 84.2521C440.806 83.8561 440.257 84.1961 440.257 85.2331C440.257 86.8801 444.419 88.4681 447.507 87.9991C449.878 87.6391 449.723 89.5511 447.257 91.0911C444.986 92.5091 444.578 94.8591 446.602 94.8591C448.427 94.8591 451.601 98.4941 450.845 99.7171C450.51 100.259 448.244 101.462 445.81 102.392C441.348 104.096 439.889 105.693 441.099 107.55C443.319 110.96 452.257 112.175 452.257 109.066C452.257 107.24 458.609 104.865 463.521 104.854C464.751 104.852 468.393 103.776 471.616 102.463C477.362 100.122 477.511 100.113 479.366 101.968C480.406 103.008 482.472 103.859 483.957 103.859C485.661 103.859 486.307 104.209 485.707 104.808C485.185 105.33 484.916 108.085 485.111 110.929C485.377 114.808 485.899 116.215 487.202 116.555C488.453 116.882 489.276 118.838 490.145 123.554C490.808 127.153 491.173 130.275 490.957 130.491C490.742 130.707 488.584 130.008 486.162 128.939C477.652 125.182 463.257 123.796 463.257 126.733C463.257 127.193 466.07 127.841 469.507 128.173C477.459 128.94 484.991 131.205 489.342 134.137C492.212 136.071 492.882 137.266 493.588 141.702C494.627 148.232 496.917 148.277 496.421 141.758C496.114 137.726 493.138 122.277 491.699 117.247C491.233 115.617 491.623 114.996 493.408 114.529C495.051 114.1 495.411 113.614 494.652 112.855C493.913 112.116 492.759 112.098 490.92 112.797C488.406 113.753 488.257 113.643 488.257 110.834C488.257 109.198 488.182 107.522 488.092 107.109C488.002 106.696 490.449 105 493.53 103.338C496.611 101.677 499.403 100.046 499.735 99.7141C500.684 98.7651 496.293 91.6911 492.514 88.0801C490.221 85.8891 487.397 84.4391 484.012 83.7131C481.224 83.1151 477.454 82.0041 475.633 81.2431C470.961 79.2911 468.711 79.5161 467.009 82.1091ZM555.256 80.8001C555.256 81.3181 555.748 82.0451 556.35 82.4171C556.952 82.7891 557.204 84.2781 556.91 85.7261C556.616 87.1741 556.872 89.7751 557.479 91.5061C558.66 94.8721 557.392 99.5801 554.536 102.436C553.762 103.21 553.409 104.298 553.753 104.854C554.589 106.207 558.256 104.247 558.256 102.446C558.256 101.708 558.97 100.511 559.843 99.7871C561.038 98.7951 561.272 97.4711 560.794 94.4151C560.445 92.1841 560.069 88.7421 559.958 86.7651C559.76 83.2501 557.883 79.8591 556.134 79.8591C555.651 79.8591 555.256 80.2821 555.256 80.8001ZM412.613 82.8511C406.637 85.2621 405.546 93.1961 410.289 99.7441C413.111 103.641 413.215 104.081 411.789 106.117C407.278 112.557 414.487 119.943 420.319 114.857L422.757 112.732L419.145 113.315C414.028 114.141 412.155 111.843 414.547 107.674C416.811 103.729 416.712 103.036 413.228 98.4311C408.662 92.3961 409.495 87.0171 415.31 84.9901C417.013 84.3961 418.121 83.4491 417.772 82.8851C417.024 81.6741 415.552 81.6641 412.613 82.8511ZM330.725 83.9091C329.775 85.4471 331.077 86.4391 332.361 85.1551C333.079 84.4371 333.096 83.8781 332.413 83.4561C331.853 83.1101 331.093 83.3141 330.725 83.9091ZM468.257 85.7811C468.257 86.1541 468.751 86.9541 469.355 87.5581C471.094 89.2971 469.436 92.8591 466.889 92.8591C465.661 92.8591 464.152 92.3541 463.534 91.7361C462.703 90.9051 462.085 91.7511 461.159 94.9861C460.47 97.3911 459.48 99.9221 458.958 100.609C457.321 102.77 459.055 101.969 461.665 99.3591C464.367 96.6571 466.309 96.2811 469.296 97.8801C471.699 99.1661 480.187 97.2021 480.962 95.1821C481.588 93.5521 478.563 89.8591 476.602 89.8591C475.862 89.8591 475.257 89.5031 475.257 89.0671C475.257 88.6321 473.682 87.5621 471.757 86.6891C469.832 85.8171 468.257 85.4081 468.257 85.7811ZM476.466 85.9301C476.626 86.6541 478.557 88.0951 480.757 89.1331C487.405 92.2671 487.744 92.5081 488.108 94.3621C488.363 95.6561 488.016 95.9811 486.858 95.5361C485.849 95.1491 485.257 95.4521 485.257 96.3551C485.257 97.1441 484.244 98.3321 483.007 98.9971C480.773 100.197 480.779 100.214 483.988 101.528C486.876 102.709 487.702 102.617 491.738 100.655C494.223 99.4481 496.257 98.0811 496.257 97.6171C496.257 97.1531 494.222 94.5991 491.736 91.9411C488.321 88.2901 486.264 86.9561 483.324 86.4861C481.183 86.1431 478.698 85.5821 477.803 85.2381C476.754 84.8361 476.279 85.0831 476.466 85.9301ZM533.256 85.8591C533.256 86.4091 533.706 86.8591 534.256 86.8591C534.806 86.8591 535.256 86.4091 535.256 85.8591C535.256 85.3091 534.806 84.8591 534.256 84.8591C533.706 84.8591 533.256 85.3091 533.256 85.8591ZM167.923 86.5261C166.898 87.5511 167.133 91.6651 168.256 92.3591C168.806 92.6991 169.256 92.3311 169.256 91.5401C169.256 90.7501 170.015 89.4861 170.943 88.7311C172.434 87.5191 172.548 87.5801 171.92 89.2501C171.302 90.8991 171.418 90.9701 172.823 89.8031C174.301 88.5771 174.287 88.3551 172.655 87.1621C170.699 85.7311 168.952 85.4961 167.923 86.5261ZM155.162 91.1091C152.825 92.8971 150.75 94.8551 150.55 95.4621C150.2 96.5281 164.007 98.4411 164.986 97.4631C165.704 96.7451 161.451 87.8591 160.39 87.8591C159.852 87.8591 157.499 89.3211 155.162 91.1091ZM341.716 88.9261C341.353 89.5121 341.297 90.2321 341.59 90.5261C342.307 91.2421 344.257 89.9801 344.257 88.8001C344.257 87.5221 342.531 87.6071 341.716 88.9261ZM465.257 88.8591C465.257 89.4091 465.958 89.8591 466.815 89.8591C467.672 89.8591 468.097 89.4091 467.757 88.8591C467.417 88.3091 466.716 87.8591 466.198 87.8591C465.68 87.8591 465.257 88.3091 465.257 88.8591ZM184.923 89.5261C183.533 90.9161 184.336 95.9391 186.256 97.8591C191.255 102.858 198.477 96.9531 194.128 91.4231C192.7 89.6081 191.159 88.8591 188.85 88.8591C187.057 88.8591 185.289 89.1591 184.923 89.5261ZM432.082 90.0851C433.05 91.0531 432.831 91.6711 431.039 93.0231C428.926 94.6171 428.895 94.7831 430.599 95.4371C431.862 95.9221 433.217 95.3531 434.966 93.6031C437.879 90.6911 437.311 88.8591 433.497 88.8591C431.412 88.8591 431.114 89.1171 432.082 90.0851ZM27.2865 91.7711C19.4215 96.1771 15.8225 103.75 4.66949 139.359C-0.72751 156.591 -0.591507 155.98 0.859493 156.518C2.09849 156.978 3.45049 153.39 12.1535 126.54C15.5085 116.189 19.4105 105.745 20.8255 103.331C23.4155 98.9111 29.4785 92.8591 31.3165 92.8591C32.8095 92.8591 34.2565 97.4651 34.2565 102.218C34.2565 105.853 33.6955 106.979 30.2565 110.237C26.9195 113.4 26.2565 114.675 26.2565 117.935C26.2565 120.759 26.8105 122.188 28.2565 123.091C29.4855 123.859 30.2565 125.423 30.2565 127.149C30.2565 131.048 32.7565 135.495 35.3265 136.167C38.3615 136.961 42.2565 132.85 42.2565 128.855C42.2565 123.163 36.9575 115.992 33.6815 117.25C32.3975 117.742 32.2875 118.191 33.1855 119.274C34.0675 120.336 34.0355 120.771 33.0485 121.114C27.8485 122.926 28.0505 116.891 33.3845 111.105L37.5115 106.627L36.9885 100.108L36.4655 93.5891L42.8875 94.1891C46.4195 94.5191 51.3795 95.7041 53.9095 96.8241C56.4405 97.9431 59.3255 98.8591 60.3205 98.8591C61.8165 98.8591 62.0365 99.4421 61.5855 102.222C60.8265 106.896 62.7415 110.191 65.8685 109.593C68.4215 109.105 70.0175 110.271 68.2725 111.349C66.7315 112.302 67.0565 116.711 68.8965 119.827C71.1985 123.724 70.0205 127.191 65.2555 130.547C63.0585 132.093 60.3605 135.189 59.2595 137.425C57.2095 141.587 56.3685 148.612 57.6675 150.716C58.9835 152.844 60.0765 150.926 60.0115 146.605C59.9285 141.115 62.1775 136.882 67.3555 132.781C69.6425 130.969 72.1425 127.983 72.9105 126.144C74.2085 123.039 74.1275 122.494 71.7635 118.461C69.0285 113.794 69.2115 110.232 72.1065 111.776C76.2465 113.983 83.2295 113.367 87.5885 110.408C89.7265 108.958 91.4505 108.365 91.8155 108.955C93.8595 112.263 83.7145 157.937 79.4605 164.573C78.8955 165.456 75.9645 164.415 68.7195 160.756C55.2605 153.959 49.5485 151.86 44.5065 151.86L40.2565 151.859L40.2425 147.609C40.2355 145.272 39.9575 142.347 39.6265 141.109C38.5105 136.946 37.2565 138.813 37.2565 144.636C37.2565 148.207 36.6715 151.249 35.7245 152.601C33.1295 156.307 31.0955 163.098 32.2385 164.241C32.9325 164.935 33.7835 163.928 34.8975 161.092C36.1785 157.83 37.2925 156.672 40.0125 155.775C45.4905 153.967 50.4135 155.226 63.5555 161.798C70.2885 165.165 77.1015 168.018 78.6965 168.139C81.5395 168.355 81.6665 168.143 85.3945 157.01C87.4845 150.768 89.7175 143.005 90.3555 139.76C90.9945 136.514 91.7955 133.875 92.1365 133.894C92.4775 133.914 93.8815 134.573 95.2565 135.359C96.6315 136.145 98.8355 136.804 100.154 136.824L102.551 136.859L101.905 154.109C101.194 173.085 99.9675 182.583 97.6465 187.071C94.4045 193.342 80.7205 196 72.9955 191.859C68.5965 189.501 67.2565 189.358 67.2565 191.245C67.2565 195.506 83.9635 198.388 91.6495 195.453C101.894 191.541 103.784 185.48 104.782 153.359C105.089 143.459 105.554 134.025 105.816 132.395C106.503 128.116 110.395 122.778 112.374 123.401C114.027 123.921 115.481 121.378 116.83 115.609C117.598 112.323 115.851 111.878 114.212 114.942C113.187 116.857 112.955 116.897 111.345 115.44C109.13 113.435 108.2 114.328 108.893 117.795C109.282 119.738 108.747 121.317 106.986 123.427C105.641 125.04 103.935 128.047 103.197 130.109C101.706 134.273 100.815 134.537 95.6075 132.361C92.6025 131.105 92.1245 130.499 92.6555 128.611C93.0045 127.372 93.9625 121.634 94.7855 115.859C95.6085 110.084 96.5315 104.684 96.8365 103.859C97.8195 101.2 99.4785 105.572 98.7485 108.897C98.0165 112.228 98.8795 112.722 100.866 110.109C101.991 108.629 102.013 108.858 101.012 111.595C100.1 114.087 100.1 115.103 101.012 116.015C101.923 116.926 102.439 116.642 103.254 114.779C104.244 112.516 104.284 112.505 103.878 114.608C103.309 117.555 104.865 118.457 106.204 115.956C106.995 114.477 106.885 113.631 105.754 112.5C104.93 111.676 104.256 109.845 104.256 108.43C104.256 106.915 103.691 105.859 102.881 105.859C102.125 105.859 101.236 104.509 100.906 102.859C100.423 100.445 99.7965 99.8591 97.6945 99.8591C95.7105 99.8591 94.8105 100.58 93.9505 102.859C92.4365 106.869 91.6755 106.64 91.5475 102.139C91.4265 97.8601 88.4335 94.8841 81.6155 92.2631C75.1225 89.7661 74.2345 90.3751 70.9435 99.5791C68.3105 106.944 67.8115 107.691 66.1315 106.792C64.1635 105.739 63.8645 103.704 65.1885 100.359C66.3825 97.3401 65.3665 95.8591 62.0995 95.8591C60.4815 95.8591 57.9365 95.2281 56.4445 94.4561C53.2625 92.8111 44.1645 91.0801 35.9385 90.5551C31.9005 90.2971 29.2535 90.6691 27.2865 91.7711ZM470.884 92.3881C469.575 95.7991 470.171 97.0021 473.007 96.6751C475.189 96.4241 475.757 95.8431 475.757 93.8591C475.757 90.8841 471.907 89.7221 470.884 92.3881ZM187.881 92.6571C187.041 94.0161 188.651 95.6691 191.516 96.3881C193.268 96.8281 194.256 96.6761 194.256 95.9671C194.256 95.3581 193.567 94.8591 192.725 94.8591C191.882 94.8591 190.934 94.1841 190.618 93.3591C189.992 91.7281 188.665 91.3881 187.881 92.6571ZM513.73 92.9011C512.659 94.6341 513.721 95.0461 520.7 95.6071C525.334 95.9791 527.256 95.7901 527.256 94.9651C527.256 93.5381 526.208 93.1901 519.58 92.4151C516.289 92.0301 514.159 92.2071 513.73 92.9011ZM422.91 96.1071C423.22 98.0201 422.991 100.487 422.401 101.59C420.955 104.293 422.161 105.256 424.426 103.206C426.824 101.036 426.762 96.6261 424.301 94.3991C422.39 92.6691 422.358 92.7081 422.91 96.1071ZM472.257 94.4181C472.257 95.2751 472.713 95.6941 473.272 95.3491C473.831 95.0031 474.031 94.3021 473.714 93.7901C472.857 92.4031 472.257 92.6611 472.257 94.4181ZM73.4085 101.458C71.7055 105.637 70.8625 108.623 71.5345 108.093C72.2065 107.563 75.6435 104.955 79.1715 102.297L85.5865 97.4651L81.6715 95.7361C79.5185 94.7851 77.4745 93.9741 77.1295 93.9331C76.7855 93.8921 75.1105 97.2791 73.4085 101.458ZM529.256 94.6311C529.256 96.0661 533.185 99.2631 533.977 98.4721C534.366 98.0821 534.203 96.9971 533.613 96.0611C532.442 94.2011 529.256 93.1551 529.256 94.6311ZM323.503 100.543C321.82 103.494 321.933 108.84 323.772 113.242C325.264 116.812 332.264 122.859 334.906 122.859C336.536 122.859 336.63 124.293 335.176 127.01C334.581 128.121 334.345 129.281 334.651 129.587C335.605 130.542 338.257 127.71 338.257 125.737C338.257 124.695 338.957 123.859 339.829 123.859C342.101 123.859 341.168 120.608 338.798 120.261C334.603 119.648 329.512 116.566 327.686 113.535C326.633 111.788 325.542 107.659 325.26 104.359C324.798 98.9531 324.625 98.5751 323.503 100.543ZM537.889 99.5591C537.58 99.8691 537.986 101.063 538.791 102.213C539.597 103.363 540.256 105.159 540.256 106.204C540.256 107.736 540.532 107.875 541.683 106.92C542.776 106.013 542.876 105.068 542.113 102.878C541.142 100.093 539.021 98.4271 537.889 99.5591ZM46.6285 101.291C48.3845 102.667 48.3955 102.862 46.8145 104.444C45.5605 105.698 45.4185 106.416 46.2615 107.245C47.0995 108.068 48.0435 107.611 49.8725 105.499C52.9905 101.899 52.5305 100.432 48.1795 100.091C45.0035 99.8431 44.8915 99.9301 46.6285 101.291ZM85.3025 101.304C84.6425 102.099 81.8175 104.215 79.0245 106.008C73.9725 109.25 73.9605 109.27 76.6575 109.991C79.8085 110.834 85.2035 109.295 87.0065 107.04C88.4285 105.262 88.7085 99.8591 87.3785 99.8591C86.8965 99.8591 85.9615 100.509 85.3025 101.304ZM149.905 101.387C151.313 105.056 157.093 105.853 163.038 103.199L166.756 101.539L162.256 100.773C159.781 100.352 155.858 99.9741 153.537 99.9331C150.147 99.8741 149.434 100.159 149.905 101.387ZM463.757 100.859C463.417 101.409 464.038 101.859 465.138 101.859C466.238 101.859 467.417 101.409 467.757 100.859C468.097 100.309 467.475 99.8591 466.375 99.8591C465.275 99.8591 464.097 100.309 463.757 100.859ZM527.506 100.659C522.637 101.02 522.003 102.27 526.006 103.619C528.745 104.542 528.747 104.549 526.451 105.287C524.236 106 523.867 107.9 525.819 108.543C527.631 109.139 533.256 104.896 533.256 102.933C533.256 100.477 532.739 100.272 527.506 100.659ZM131.256 103.38C131.256 104.372 136.524 111.859 137.222 111.859C138.77 111.859 139.129 110.484 138.104 108.478C136.49 105.318 131.256 101.422 131.256 103.38ZM171.604 104.395C171.28 105.24 171.22 108.409 171.471 111.437C172.012 117.966 174.582 121.956 179.128 123.327C181.527 124.051 182.264 124.8 182.047 126.295C181.814 127.895 180.319 128.619 174.537 129.928C167.086 131.616 166.005 132.18 160.508 137.251C157.345 140.169 157.222 140.196 155.807 138.303C155.008 137.234 152.901 133.52 151.125 130.05C148.212 124.357 148.012 123.422 149.076 120.479C149.725 118.685 150.256 116.496 150.256 115.616C150.256 114.672 151.694 113.54 153.756 112.859C157.097 111.756 158.128 110.506 156.506 109.522C156.094 109.272 154.114 109.725 152.108 110.529C149.038 111.76 148.285 112.685 147.358 116.368C146.752 118.775 146.256 121.806 146.256 123.103C146.256 124.973 145.259 125.883 141.453 127.491L136.651 129.52L133.151 125.44C131.225 123.195 128.625 119.672 127.372 117.609C125.101 113.873 125.101 113.859 127.174 113.859C130.218 113.859 129.732 111.931 125.631 107.731C121.884 103.894 119.256 103.603 119.256 107.025C119.256 108.099 118.806 108.699 118.256 108.359C116.376 107.197 117.255 110.912 120.271 116.888C123.068 122.428 125.256 124.517 125.256 121.647C125.256 120.215 130.685 126.258 132.634 129.859C133.379 131.234 134.555 134.834 135.248 137.859C136.561 143.593 144.057 163.999 146.898 169.578C150.075 175.815 157.343 176.081 165.002 170.239C169.721 166.64 167.786 164.881 162.817 168.253C153.675 174.457 151.5 173.056 145.125 156.859C142.42 149.984 139.803 143.459 139.311 142.359C138.818 141.259 138.177 138.636 137.886 136.531C137.368 132.789 137.46 132.657 141.889 130.697C144.382 129.594 146.53 128.842 146.662 129.025C146.794 129.209 150.208 134.647 154.25 141.109C158.291 147.571 161.97 152.859 162.427 152.859C163.917 152.859 163.3 149.666 161.133 146.16L159.01 142.725L161.883 139.703C165.565 135.83 168.252 134.469 176.247 132.431C179.817 131.521 183.111 130.404 183.566 129.949C184.022 129.493 186.323 129.338 188.679 129.603C193.521 130.149 203.431 127.624 207.191 124.886C209.595 123.137 209.654 123.154 211.729 126.236C213.249 128.495 215.609 129.994 220.262 131.657C227.751 134.333 232.289 137.542 236.181 142.914C239.268 147.175 244.06 162.473 247.603 179.379C248.928 185.696 250.425 190.415 251.186 190.669C252.241 191.021 252.36 188.527 251.805 177.732C250.872 159.572 248.49 131.76 247.81 131.08C246.344 129.614 246.201 132.9 247.072 148.006C247.59 157 247.886 164.505 247.728 164.683C247.57 164.861 246.71 162.386 245.817 159.183C243.465 150.75 239.53 141.759 236.859 138.718C232.851 134.155 226.408 130.095 221.187 128.843C213.54 127.008 210.783 121.153 213.707 112.953C214.571 110.53 215.009 108.28 214.681 107.953C213.553 106.831 210.241 112.101 209.616 116.011C209.22 118.483 208.068 120.648 206.486 121.893C201.119 126.115 185.256 128.704 185.256 125.359C185.256 124.419 186.205 123.859 187.796 123.859C191.252 123.859 198.256 120.163 198.256 118.339C198.256 116.436 197.982 116.466 193.517 118.859C189.223 121.161 180.698 121.511 178.045 119.496C175.601 117.638 174.256 113.486 174.256 107.794C174.256 103.038 172.827 101.207 171.604 104.395ZM341.445 103.587C337.56 104.066 337.623 106.206 341.535 106.671C344.386 107.009 348.257 105.37 348.257 103.824C348.257 102.856 347.574 102.832 341.445 103.587ZM127.256 105.769C127.256 107.101 132.478 114.859 133.375 114.859C135.367 114.859 134.956 112.745 132.232 108.984C129.425 105.109 127.256 103.708 127.256 105.769ZM290.977 106.191C290.581 107.198 290.257 108.807 290.257 109.766C290.257 111.999 286.909 115.055 281.473 117.784C276.359 120.351 274.932 119.76 275.454 115.29C275.756 112.703 275.563 112.19 274.589 112.998C273.899 113.571 273.077 114.85 272.763 115.841C272.448 116.832 271.389 117.853 270.408 118.109C268.996 118.478 268.714 119.344 269.056 122.271C269.47 125.82 269.611 125.94 272.564 125.292C274.256 124.92 279.037 123.194 283.189 121.456L290.738 118.295L291.523 112.835C292.422 106.592 292.145 103.221 290.977 106.191ZM186.506 107.206C182.614 108.483 182.26 109.859 185.822 109.859C189.038 109.859 192.504 108.069 191.725 106.809C191.061 105.735 190.969 105.742 186.506 107.206ZM489.257 107.859C489.257 108.409 489.707 108.859 490.257 108.859C490.807 108.859 491.257 108.409 491.257 107.859C491.257 107.309 490.807 106.859 490.257 106.859C489.707 106.859 489.257 107.309 489.257 107.859ZM122.894 110.359C123.211 111.184 123.927 111.859 124.485 111.859C125.071 111.859 124.974 111.224 124.256 110.359C123.571 109.534 122.855 108.859 122.665 108.859C122.475 108.859 122.578 109.534 122.894 110.359ZM456.745 111.109C458.813 117.559 458.37 118.156 449.257 121.179C438.75 124.664 431.864 125.608 429.75 123.854C427.764 122.206 426.502 123.443 427.909 125.657C429 127.375 435.761 127.908 442.605 126.814C445.112 126.414 445.591 126.767 446.605 129.763C447.779 133.236 450.607 135.842 451.852 134.598C452.231 134.218 452.009 133.265 451.357 132.48C450.706 131.695 449.785 129.704 449.312 128.054C448.483 125.16 448.614 124.996 453.104 123.321C461.154 120.318 462.374 118.363 460.159 112.008C458.875 108.325 455.574 107.455 456.745 111.109ZM620.406 109.809C620.836 111.098 622.207 111.33 622.331 110.134C622.372 109.735 621.866 109.229 621.206 109.009C620.546 108.789 620.186 109.149 620.406 109.809ZM260.757 114.859C260.358 115.505 260.48 116.483 261.03 117.033C261.697 117.7 262.273 117.642 262.757 116.859C263.156 116.213 263.033 115.235 262.483 114.685C261.816 114.018 261.241 114.076 260.757 114.859ZM602.256 118.418C602.256 119.275 602.706 119.699 603.256 119.359C603.806 119.019 604.256 118.318 604.256 117.8C604.256 117.282 603.806 116.859 603.256 116.859C602.706 116.859 602.256 117.561 602.256 118.418ZM592.974 121.448C589.785 123.177 583.142 123.713 578.756 122.594C576.091 121.914 575.951 121.982 577.506 123.204C578.468 123.96 579.256 125.3 579.256 126.181C579.256 127.653 577.52 128.382 569.756 130.167C568.656 130.42 569.669 130.679 572.006 130.743C578.586 130.923 576.937 133.859 570.256 133.859C563.934 133.859 562.234 131.02 567.006 128.431C570.635 126.462 569.551 126.502 556.208 128.824C545.197 130.74 543.303 131.643 543.271 134.987C543.25 137.302 541.496 138.416 535.506 139.919C532.513 140.671 530.256 141.801 530.256 142.548C530.256 144.086 533.442 144.24 538.032 142.923C540.893 142.103 541.482 142.274 542.824 144.322C546.02 149.199 551.328 149.667 565.756 146.343C569.056 145.583 573.106 144.807 574.756 144.619C578.307 144.215 582.256 142.198 582.256 140.789C582.256 140.134 581.588 140.146 580.322 140.824C577.924 142.107 573.256 142.183 573.256 140.938C573.256 140.432 574.601 139.723 576.245 139.362C577.888 139.001 579.49 138.29 579.804 137.782C580.117 137.274 580.974 136.859 581.707 136.859C583.634 136.859 584.599 141.718 583.066 143.705C582.153 144.888 582.418 144.824 583.998 143.477C585.212 142.442 586.467 140.77 586.787 139.762C587.107 138.754 590.278 136.497 593.833 134.747C598.502 132.448 600.173 131.119 599.85 129.962C599.603 129.08 599.105 126.446 598.741 124.109C598.026 119.508 597.229 119.14 592.974 121.448ZM34.5065 123.521C33.0395 124.113 32.8625 129.694 34.2435 131.859C34.9815 133.017 35.6045 133.108 36.9785 132.257C39.1675 130.9 39.7465 127.644 38.2845 124.911C37.1615 122.813 36.6915 122.64 34.5065 123.521ZM572.018 126.566C573.262 126.805 575.062 126.796 576.018 126.546C576.974 126.296 575.956 126.1 573.756 126.111C571.556 126.122 570.774 126.327 572.018 126.566ZM573.45 134.764C567.827 136.589 566.753 138.59 571.703 138.019C576.303 137.487 581.748 135.463 581.546 134.359C581.258 132.797 579.192 132.901 573.45 134.764ZM522.839 142.725C522.408 143.422 522.326 144.262 522.656 144.592C523.551 145.487 524.527 144.171 524.043 142.721C523.705 141.705 523.469 141.705 522.839 142.725ZM187.256 151.836C187.256 157.059 186.95 158.013 184.831 159.402C181.188 161.789 180.23 165.914 179.558 182.109C179.005 195.416 179.107 196.859 180.601 196.859C182.019 196.859 182.262 195.533 182.3 187.609C182.375 171.832 183.637 164.129 186.566 161.571C188.56 159.83 189.17 158.237 189.428 154.092C189.847 147.365 191.691 147.24 191.963 153.92C192.129 157.98 192.78 159.692 195.213 162.463C196.887 164.369 198.327 166.025 198.413 166.144C198.5 166.262 198.838 173.225 199.163 181.617C199.503 190.348 200.18 196.978 200.746 197.117C201.291 197.25 201.966 196.037 202.246 194.422C202.709 191.752 203.889 190.977 215.177 185.922C222.009 182.862 227.808 179.726 228.063 178.951C228.7 177.021 218.143 155.859 216.542 155.859C214.653 155.859 214.822 156.396 220.27 167.727C223.012 173.429 225.256 178.205 225.256 178.341C225.256 178.476 223.119 179.389 220.506 180.37C217.893 181.35 213.181 183.436 210.035 185.006C206.888 186.575 203.85 187.859 203.285 187.859C202.652 187.859 202.256 184.191 202.256 178.327C202.256 168.175 201.039 163.702 197.394 160.454C195.874 159.1 195.252 157.365 195.242 154.454C195.219 147.309 194.442 145.859 190.639 145.859H187.256V151.836ZM437.257 147.859C437.257 148.409 437.707 148.859 438.257 148.859C438.807 148.859 439.257 148.409 439.257 147.859C439.257 147.309 438.807 146.859 438.257 146.859C437.707 146.859 437.257 147.309 437.257 147.859ZM515.27 154.109C515.277 155.347 515.552 157.361 515.88 158.585C516.81 162.056 519.782 159.827 520.078 155.436C520.295 152.212 520.069 151.859 517.787 151.859C515.825 151.859 515.259 152.365 515.27 154.109ZM522.414 153.859C522.414 155.234 522.641 155.797 522.918 155.109C523.196 154.422 523.196 153.297 522.918 152.609C522.641 151.922 522.414 152.484 522.414 153.859ZM525.256 154.359C525.256 155.734 525.65 156.859 526.131 156.859C526.612 156.859 527.006 155.734 527.006 154.359C527.006 152.984 526.612 151.859 526.131 151.859C525.65 151.859 525.256 152.984 525.256 154.359ZM529.256 153.359C529.256 154.184 529.931 154.859 530.756 154.859C531.581 154.859 532.256 154.184 532.256 153.359C532.256 152.534 531.581 151.859 530.756 151.859C529.931 151.859 529.256 152.534 529.256 153.359ZM465.757 153.919C464.107 154.306 460.62 154.676 458.007 154.741C454.504 154.828 453.257 155.253 453.257 156.359C453.257 158.03 456.33 158.253 465.007 157.211C468.329 156.812 470.257 156.102 470.257 155.279C470.257 153.435 469.194 153.113 465.757 153.919ZM524.756 159.293C523.106 160.038 520.856 161.337 519.756 162.179C517.795 163.679 517.812 163.731 520.571 164.784C522.119 165.375 524.067 165.859 524.898 165.859C526.625 165.859 532.256 160.56 532.256 158.936C532.256 157.465 528.396 157.648 524.756 159.293ZM458.507 160.591C453.951 161.002 453.3 162.173 455.406 166.175C456.953 169.114 458.207 169.831 461.757 169.812C465.437 169.792 467.848 168.062 469.217 164.462C471.096 159.519 470.96 159.47 458.507 160.591ZM463.257 177.027C456.951 178.808 457.212 180.158 463.757 179.615L469.757 179.116L465.007 180.546C459.876 182.09 458.925 183.463 462.507 184.153C464.436 184.525 464.365 184.606 462.007 184.723C457.853 184.929 458.71 186.844 463.007 186.959C465.955 187.037 466.263 187.198 464.448 187.709C463.178 188.066 462.185 188.809 462.241 189.359C462.357 190.473 467.902 190.12 470.279 188.847C472.109 187.868 472.75 182.859 471.046 182.859C470.134 182.859 470.135 182.58 471.056 181.659C472.75 179.965 472.546 177.184 470.674 176.466C468.701 175.709 467.644 175.789 463.257 177.027ZM127.006 182.602C120.981 182.784 116.256 183.351 116.256 183.893C116.256 184.997 140.991 185.004 157.256 183.904C168.929 183.115 169.973 183.237 145.256 182.501C141.131 182.378 132.918 182.423 127.006 182.602ZM438.41 183.411C438.601 184.391 439.362 185.395 440.103 185.641C440.963 185.928 441.323 185.447 441.103 184.307C440.912 183.327 440.151 182.323 439.41 182.077C438.55 181.79 438.19 182.271 438.41 183.411ZM466.007 183.521C466.695 183.799 467.82 183.799 468.507 183.521C469.195 183.244 468.632 183.017 467.257 183.017C465.882 183.017 465.32 183.244 466.007 183.521ZM511.642 184.673C513.822 186.853 523.575 187 524 184.859C524.241 183.648 522.924 183.331 517.17 183.216C510.635 183.085 510.175 183.206 511.642 184.673ZM313.257 186.715C313.257 188.563 316.532 189.654 323.159 190.013C331.68 190.474 332.605 188.389 324.266 187.518C320.933 187.169 317.093 186.605 315.732 186.263C314.25 185.891 313.257 186.073 313.257 186.715ZM317.257 192.625C317.257 194.145 322.899 195.859 327.905 195.859C331.106 195.859 332.257 195.462 332.257 194.359C332.257 193.375 331.273 192.859 329.397 192.859C327.823 192.859 324.448 192.573 321.897 192.223C318.948 191.819 317.257 191.966 317.257 192.625ZM522.006 192.555C519.124 193.297 520.028 194.859 523.339 194.859C525.275 194.859 526.275 194.417 526.027 193.672C525.557 192.263 524.392 191.939 522.006 192.555ZM474.895 194.359C475.376 195.613 478.325 195.859 492.863 195.859C507.657 195.859 510.257 195.635 510.257 194.359C510.257 193.081 507.594 192.859 492.288 192.859C476.727 192.859 474.397 193.06 474.895 194.359ZM660.203 197.202C659.957 197.424 618.356 197.919 567.756 198.302C517.156 198.685 471.032 199.162 465.257 199.362C459.482 199.563 414.257 199.991 364.757 200.313C315.257 200.636 264.181 201.106 251.256 201.359C238.331 201.612 196.706 202.055 158.756 202.344C120.806 202.632 71.1935 203.144 48.5065 203.481L7.25649 204.094V206.606V209.117L60.5065 208.484C89.7945 208.136 131.531 207.629 153.256 207.358C174.981 207.086 216.831 206.642 246.256 206.371C275.681 206.099 325.181 205.642 356.257 205.356C387.332 205.07 426.482 204.621 443.257 204.359C460.031 204.097 510.656 203.626 555.756 203.313C600.856 203.001 644.056 202.563 651.756 202.341C659.456 202.119 666.544 201.92 667.506 201.898C668.576 201.874 669.256 201.082 669.256 199.859C669.256 198.759 669.144 197.831 669.006 197.797C667.205 197.349 660.539 196.899 660.203 197.202Z" fill="#F4E6DB"/>
</svg>
